<?xml version="1.0" encoding="utf-8"?>
<!-- Generator: Adobe Illustrator 25.1.0, SVG Export Plug-In . SVG Version: 6.00 Build 0)  -->
<svg version="1.1" id="Layer_1" xmlns="http://www.w3.org/2000/svg" xmlns:xlink="http://www.w3.org/1999/xlink" x="0px" y="0px"
	 viewBox="0 0 288 229.9" style="enable-background:new 0 0 288 229.9;" xml:space="preserve">
<style type="text/css">
	.st0{fill:#F16A3D;}
</style>
<g id="Icon_1_">
	<g>
		<path class="st0" d="M179.3,55.8c-3,0.3-3.7,4.3-1.2,5.7c2.8,1.5,5.7,3.5,8,6c2.5,2.5,4.5,5.2,6,7.8c1.5,2.5,5.3,1.8,5.7-1.2
			c0.7-5.3-0.7-10.5-4.3-14.2C190,56.6,184.8,55.1,179.3,55.8z"/>
		<path class="st0" d="M211.5,42.1c-5.3-5.3-16.5-3.7-25.8,0.5c-4.8,1.5-9.5,4.2-13,7.7l-20,20c-1.5,1-3,2-4.5,3
			c-13.3,8.3-29.7,11-46.2,8.8c-8-1-15.8,1.2-21.7,7l-3.7,3.7l26.7,26.7l-1.3,1.3c-0.3,0.2-0.8,0.2-1.2,0.3l-7.2,4
			c-2.2,1.3-2.7,4.3-1,6l0.3,0.3l-2,0.7l14,13.8l0.7-2l4,4l-2,0.7l14,14l0.7-2l0.2,0.2c1.8,1.8,4.8,1.3,6.2-0.8l4-7.2
			c0.2-0.3,0.3-0.8,0.3-1.3l1.3-1.3l26.8,26.8l3.7-3.7c5.8-5.8,8-13.7,7-21.7c-2.2-16.5,0.5-32.8,8.8-46.2c1.2-1.8,2.3-3.7,3.7-5.5
			l19.2-19.2c3.3-3.3,6-7.7,7.5-12.3C215.1,59.1,217,47.6,211.5,42.1z M210,64.1c-1,5.7-4,11.5-8,15.5l-69.3,69.3
			c-0.2-0.3-0.3-0.7-0.7-0.8l-11.5-11.5l21.2-21.2c1-1,1-2.5,0-3.3c-1-1-2.5-1-3.3,0l-21.2,21.2l-11.5-11.5c-0.2-0.2-0.7-0.5-1-0.7
			l0.3-0.3l69.1-69.1c4-4,9.7-6.8,15.5-8c1.3,0,2.5,0,3.7,0.2c-1.3,2.2,0.7,7.2,5.2,11.7c4.3,4.3,9.3,6.5,11.7,5.2
			C210,61.6,210,62.8,210,64.1z"/>
		<path class="st0" d="M91,135.3c-12.8,5.3-22,17.8-22,32.7c14.7,0,27.5-9.2,32.7-22c-5.2,8.7-14.5,14.3-25.2,14.3
			C76.5,149.6,82.3,140.3,91,135.3z"/>
		<path class="st0" d="M93.3,177.3c0-10.7,5.8-20,14.5-25.2c-12.8,5.3-22,17.8-22,32.7c14.7,0,27.5-9.2,32.7-22
			C113.5,171.4,104.2,177.3,93.3,177.3z"/>
	</g>
</g>
</svg>
