<svg id="Layer_1" data-name="Layer 1" xmlns="http://www.w3.org/2000/svg" viewBox="0 0 969.53 493.23"><defs><style>.cls-1{fill:#070808;}.cls-2{fill:#f16a3d;}.cls-3{fill:#e4bc40;}.cls-4{fill:#d08729;}.cls-5{fill:#d36b28;}.cls-6{opacity:0.4;}.cls-7{opacity:0.8;}.cls-8{fill:#353535;}.cls-9{fill:#e5e6e6;}.cls-10{fill:#ef4a46;}.cls-11{fill:#59595c;opacity:0.2;}.cls-11,.cls-15{isolation:isolate;}.cls-12{fill:#fff;}.cls-13{fill:#d0eaf2;}.cls-14{fill:#d1d1d1;}.cls-15{opacity:0.5;}.cls-16{fill:#1fe3f9;}.cls-17{fill:#72adcb;}.cls-18{fill:#2a6683;}.cls-19{fill:#114256;}</style></defs><g id="Background"><rect class="cls-1" x="0.53" y="-6" width="969" height="499"/></g><g id="Rocket"><path class="cls-2" d="M957.24,292.51a23.75,23.75,0,0,0-26.65,11.13,7.39,7.39,0,0,0-1.33-.11,8.58,8.58,0,0,0-5.94,2.41,15.29,15.29,0,0,0-21.77-1.12,15.59,15.59,0,0,0-4.93,9.36,29.61,29.61,0,0,0-41.25,8.73l-.06.09a28.56,28.56,0,0,0-1.77,3.15,16.46,16.46,0,0,0-23,4.61h0v.05a16.51,16.51,0,0,0-2,4.1,24.43,24.43,0,0,0-33.13,10.52v.08a19.14,19.14,0,0,0-.86,1.84,18.87,18.87,0,0,0-26.64,3.56,19.19,19.19,0,0,0-2.77,5.09,20.45,20.45,0,0,0-13.2-.52,28.61,28.61,0,0,0-54.4-9.77,21.51,21.51,0,0,0-21.18.9,24.47,24.47,0,0,0-32.59-12.25,24.76,24.76,0,0,0-13.25,15.25,15.72,15.72,0,0,0-24.5-.6A25.66,25.66,0,0,0,590,343.39a27.83,27.83,0,0,0-4.08.33v-.33a22,22,0,0,0-42.23-8.77,11,11,0,0,0-13.09-.65,16.24,16.24,0,0,0-21-9.55,16.42,16.42,0,0,0-10.11,11.81,28.77,28.77,0,0,0-56.8.78,12,12,0,0,0-8,9.74,14.68,14.68,0,0,0-9.16.92,18.84,18.84,0,0,0-26.47,2.56,20.65,20.65,0,0,0-28.46-7.36,21,21,0,0,0-9.27,11.93,12.92,12.92,0,0,0-7.66,1.26,20.86,20.86,0,0,0-41.54-.56,14.7,14.7,0,0,0-15.82,3.93A19.27,19.27,0,0,0,273,357.8a20.85,20.85,0,0,0-28.26-9h-.07a21.26,21.26,0,0,0-4.86,3.56,17.4,17.4,0,0,0-24.76-1.49,17.77,17.77,0,0,0-4.51,6.35,11.75,11.75,0,0,0,.34-2.7,11,11,0,1,0-22-.18h0a10.94,10.94,0,0,0,.26,2.48,16.77,16.77,0,0,0-13.5-1.53c.07-.75.11-1.52.11-2.29a23.32,23.32,0,0,0-46.48-2.83,12.9,12.9,0,0,0-1.64-1.4A24.58,24.58,0,0,0,100.46,327h-.16a19.32,19.32,0,0,0-9.38-16.52A18.8,18.8,0,0,0,56,309.25a11.6,11.6,0,0,0-5.7-1.49h-.84A17.26,17.26,0,0,0,32.4,292.18h-.57A20.35,20.35,0,0,0,4,284.32a20.65,20.65,0,0,0-7.56,7.49,11.29,11.29,0,0,0-6.58-2.09h-.28V501.19h989V259.81A38,38,0,0,0,957.24,292.51ZM209.45,360.45h-.39a13.43,13.43,0,0,0,.7-1.29C209.64,359.58,209.55,360,209.45,360.45Zm237,0h0a11.3,11.3,0,0,0,2.46-.26l.22.26Zm49,0H493.1a26.74,26.74,0,0,0,2.35-3.24Zm4-13.6c.13-.71.24-1.43.32-2.15a15.47,15.47,0,0,0,.8,2.15Z"/><rect class="cls-3" x="470.67" y="231.67" width="52.59" height="152.99"/><path class="cls-4" d="M497,288.29c4.38,0,14.72-25.35,14.72-56.64H482.23C482.23,263,492.57,288.29,497,288.29Z"/><path class="cls-5" d="M497,266.85c2.72,0,9.14-15.75,9.14-35.18H487.81C487.81,251.1,494.24,266.85,497,266.85Z"/><path class="cls-1" d="M957.24,332.6a23.75,23.75,0,0,0-26.65,11.13,7.39,7.39,0,0,0-1.33-.11,8.54,8.54,0,0,0-5.94,2.41,15.29,15.29,0,0,0-21.77-1.12,15.59,15.59,0,0,0-4.93,9.36A29.61,29.61,0,0,0,855.37,363v.07a27,27,0,0,0-1.77,3.15,16.46,16.46,0,0,0-23,4.61h0v.05a16.51,16.51,0,0,0-2,4.1,24.42,24.42,0,0,0-33.13,10.5v.09c-.32.61-.61,1.23-.86,1.85A18.86,18.86,0,0,0,768,391a19.19,19.19,0,0,0-2.77,5.09,20.45,20.45,0,0,0-13.2-.52,28.61,28.61,0,0,0-54.4-9.77,21.51,21.51,0,0,0-21.18.9,24.47,24.47,0,0,0-32.59-12.25,24.76,24.76,0,0,0-13.25,15.25,15.72,15.72,0,0,0-24.5-.6A25.66,25.66,0,0,0,590,383.47a26.51,26.51,0,0,0-4.08.32v-.32a22,22,0,0,0-42.23-8.78,11,11,0,0,0-13.09-.64,16.24,16.24,0,0,0-21-9.55,16.42,16.42,0,0,0-10.11,11.81,28.77,28.77,0,0,0-56.8.78,12,12,0,0,0-8,9.74,14.68,14.68,0,0,0-9.16.92,18.86,18.86,0,0,0-26.48,2.56A20.63,20.63,0,0,0,370.64,383a21,21,0,0,0-9.28,11.93,11.53,11.53,0,0,0-1.77-.13,13.21,13.21,0,0,0-5.88,1.39,20.86,20.86,0,0,0-41.54-.56,14.7,14.7,0,0,0-15.82,3.93,19.27,19.27,0,0,0-23.28-1.63,20.85,20.85,0,0,0-28.26-9h-.07a21.26,21.26,0,0,0-4.86,3.56,17.4,17.4,0,0,0-24.76-1.5,17.77,17.77,0,0,0-4.51,6.35,11.59,11.59,0,0,0,.34-2.69,11,11,0,1,0-22-.18h0a10.94,10.94,0,0,0,.26,2.48,16.77,16.77,0,0,0-13.5-1.53c.07-.75.11-1.52.11-2.29a23.32,23.32,0,0,0-46.48-2.83,10.93,10.93,0,0,0-1.64-1.4,24.68,24.68,0,0,0-24.4-21.93,22,22,0,0,0-2.81.17,19.32,19.32,0,0,0-9.38-16.52,18.8,18.8,0,0,0-34.9-1.23,11.57,11.57,0,0,0-5.74-1.49h-.84a17.27,17.27,0,0,0-17.08-15.57h-.7a20.34,20.34,0,0,0-27.89-7.82,20.66,20.66,0,0,0-7.52,7.45,11.37,11.37,0,0,0-6.58-2.1h-.31V501.19h989V299.9A38,38,0,0,0,957.24,332.6ZM209.45,400.54h-.39a13.43,13.43,0,0,0,.7-1.29C209.64,399.67,209.55,400.1,209.45,400.54Z"/></g><g id="Star_Dark-2" data-name="Star Dark-2" class="cls-6"><path class="cls-2" d="M557.71,77.44l.29-1.16a1.5,1.5,0,0,0-.32-1.38l-.83-.9a1.54,1.54,0,0,1,.15-2.16,1.59,1.59,0,0,1,.93-.37l1.22-.07a1.53,1.53,0,0,0,1.22-.73l.64-1a1.53,1.53,0,0,1,2.09-.52,1.48,1.48,0,0,1,.62.73l.45,1.14a1.5,1.5,0,0,0,1.07.93l1.17.27A1.52,1.52,0,0,1,567.53,74a1.58,1.58,0,0,1-.52.84l-1,.78a1.47,1.47,0,0,0-.48,1.38l.1,1.21a1.54,1.54,0,0,1-2.37,1.41l-1-.66a1.52,1.52,0,0,0-1.46-.09l-1.12.47a1.53,1.53,0,0,1-1.92-1h0A1.46,1.46,0,0,1,557.71,77.44Z"/><path class="cls-2" d="M507.18,47.3l.26,1.25a1.62,1.62,0,0,0,.94,1.14l1.18.49a1.6,1.6,0,0,1,.86,2.09,1.64,1.64,0,0,1-.69.78l-1.1.63a1.6,1.6,0,0,0-.81,1.25l-.1,1.27A1.61,1.61,0,0,1,506,57.67h0a1.64,1.64,0,0,1-.94-.41l-.94-.85a1.64,1.64,0,0,0-1.44-.38l-1.25.3a1.6,1.6,0,0,1-1.82-2.21l.53-1.16a1.66,1.66,0,0,0-.05-1.52l-.67-1.09a1.6,1.6,0,0,1,.54-2.2h0a1.59,1.59,0,0,1,1-.22l1.29.16a1.59,1.59,0,0,0,1.39-.55l.74-.94a1.61,1.61,0,0,1,2.81.7Z"/><path class="cls-2" d="M436.14,24.26l.72-.92a1.54,1.54,0,0,0,.22-1.35l-.37-1.1a1.48,1.48,0,0,1,1-1.85h0a1.45,1.45,0,0,1,.92,0l1.08.37a1.45,1.45,0,0,0,1.35-.2l.94-.69a1.47,1.47,0,0,1,2.05.34,1.37,1.37,0,0,1,.27.88V20.9a1.46,1.46,0,0,0,.6,1.22l.94.68a1.47,1.47,0,0,1,.34,2,1.5,1.5,0,0,1-.78.55l-1.08.3a1.5,1.5,0,0,0-1,.93L443,27.67a1.47,1.47,0,0,1-1.82,1h0a1.43,1.43,0,0,1-.76-.56l-.66-.95a1.42,1.42,0,0,0-1.2-.63h-1.16A1.47,1.47,0,0,1,436,25h0v0A1.59,1.59,0,0,1,436.14,24.26Z"/></g><g id="Star_Light" data-name="Star Light" class="cls-7"><path class="cls-2" d="M539.61,32.82l-1.93.39a2.47,2.47,0,0,0-1.78,1.46l-.77,1.81a2.48,2.48,0,0,1-3.24,1.31h0a2.52,2.52,0,0,1-1.19-1.07l-1-1.71a2.5,2.5,0,0,0-1.93-1.26l-2-.17a2.46,2.46,0,0,1-2.24-2.66h0a2.56,2.56,0,0,1,.65-1.48L525.53,28a2.47,2.47,0,0,0,.59-2.22l-.38-1.93a2.46,2.46,0,0,1,3.44-2.8l1.79.82a2.45,2.45,0,0,0,2.29-.13l1.69-1a2.46,2.46,0,0,1,3.4.73v0h0a2.5,2.5,0,0,1,.37,1.64l-.23,2a2.5,2.5,0,0,0,.83,2.15l1.4,1.29a2.49,2.49,0,0,1,.23,3.51A2.39,2.39,0,0,1,539.61,32.82Z"/><path class="cls-2" d="M438,64.51l1.9,1.09a2.79,2.79,0,0,0,2.56.08l2-1a2.74,2.74,0,0,1,3.65,1.3v0h0a2.79,2.79,0,0,1,.22,1.71l-.44,2.14a2.74,2.74,0,0,0,.7,2.47l1.52,1.58a2.75,2.75,0,0,1-1.68,4.64l-2.17.25a2.75,2.75,0,0,0-2.12,1.44l-1,1.93a2.75,2.75,0,0,1-3.71,1.13h0a2.71,2.71,0,0,1-1.2-1.28l-.9-2a2.78,2.78,0,0,0-2-1.58L433.19,78a2.76,2.76,0,0,1-2.25-3.19h0a2.79,2.79,0,0,1,.77-1.48l1.61-1.47a2.79,2.79,0,0,0,.87-2.42l-.3-2.16A2.74,2.74,0,0,1,438,64.51Z"/></g><g id="Layer_8" data-name="Layer 8"><path class="cls-8" d="M430.53,252.49a5.27,5.27,0,0,1-5.27-5.27v0h0V211.12a5.26,5.26,0,0,1,5.26-5.28h0a3.64,3.64,0,0,1,.66,0l30.52-30.59V129.06c0-23.18,4.07-46.1,11.46-64.47,10.07-25.05,19.64-27,22.34-27,9.1,0,18.12,15.53,23.52,30.07a151.48,151.48,0,0,1,5.26,17.44c.61,2.58,1.18,5.23,1.69,7.89s1,5.57,1.39,8.37.77,5.88,1,8.83c.59,6.19.89,12.54.89,18.87V175.4l30.41,30.48a3.53,3.53,0,0,1,.65,0,5.3,5.3,0,0,1,5.28,5.29v36.08a5.27,5.27,0,0,1-5.26,5.28h0a5.37,5.37,0,0,1-1.9-.35l-.16-.06-.37-.18a4.87,4.87,0,0,1-.9-.73,5.7,5.7,0,0,1-.9-1l-.24-.37a5.13,5.13,0,0,1-.57-1.29,4.87,4.87,0,0,1-.12-.52l-.1-.31v-2.83c-1.28-2.77-5.18-9.76-14.78-18a32.42,32.42,0,0,0-11-6.57v6.09h-1.44l2.15,6.8H460.93l2.19-6.75h-1.44v-6.08A32.06,32.06,0,0,0,450.53,227c-9.6,8.28-13.49,15.26-14.77,18v2.14a4.22,4.22,0,0,1-.07.79,5.46,5.46,0,0,1-.72,2,2.64,2.64,0,0,1-.23.35,5.91,5.91,0,0,1-1,1,5.15,5.15,0,0,1-.88.58l-.12.07-.42.18A4.79,4.79,0,0,1,430.53,252.49Z"/><path class="cls-8" d="M560.34,209.84h0a1.17,1.17,0,0,0-.45.09h-.1l-.24.16a1.26,1.26,0,0,0-.22.24l-.06.09a1,1,0,0,0-.13.3.84.84,0,0,0,0,.17L525.28,177V129c0-6.42-.31-12.6-.88-18.49q-.42-4.44-1-8.64c-.4-2.81-.86-5.53-1.36-8.19S521,88.46,520.39,86a145.82,145.82,0,0,0-5.12-17c-6.43-17.2-14.51-27.36-19.74-27.36h0c-9.93,0-29.8,36.08-29.8,87.45V177L431.8,211v-.17a1,1,0,0,0-.13-.3l-.06-.09a2.73,2.73,0,0,0-.23-.25,1.14,1.14,0,0,0-.23-.15H431a1.17,1.17,0,0,0-.45-.09h0a1.28,1.28,0,0,0-1.31,1.18V247.2a1.27,1.27,0,0,0,1.27,1.27,1.17,1.17,0,0,0,.45-.09h.11a1.19,1.19,0,0,0,.23-.16,1.3,1.3,0,0,0,.19-.22l.06-.09a1,1,0,0,0,.13-.3v-3.35c1.17-2.8,5.17-10.73,16.16-20.22,7.24-6.24,13.46-8.1,17.74-8.44v7h2.94l-.57,1.66h0l-1.6,5h58.14L523,224.54h0l-.21-.65-.44-1.35h2.94v-7c4.28.37,10.45,2.25,17.62,8.44,11,9.48,15,17.41,16.17,20.22v3.19a1.31,1.31,0,0,0,.06.27,1,1,0,0,0,.13.3l.06.09a1,1,0,0,0,.22.25,1,1,0,0,0,.24.15h.1a1,1,0,0,0,.45.1,1.3,1.3,0,0,0,1.28-1.28v-36a1.28,1.28,0,0,0-1.28-1.28h0Z"/><path class="cls-9" d="M525.16,176.94l34.37,34.39V245.2s-2.82-9.45-16.58-21.32S519,216,519,216Z"/><rect class="cls-10" x="559.07" y="209.84" width="2.55" height="38.6" rx="1.27"/><path class="cls-11" d="M560.34,209.84v38.6a1.32,1.32,0,0,1-1.27-1.35h0v-35.9A1.32,1.32,0,0,1,560.34,209.84Z"/><path class="cls-12" d="M495.53,41.61c-9.93,0-29.8,36.08-29.8,87.45v93.38h59.6V129.06C525.28,77.73,505.41,41.61,495.53,41.61Z"/><path class="cls-12" d="M465.68,177l-34.31,34.4v33.87s2.81-9.45,16.57-21.33,23.95-7.79,23.95-7.79Z"/><rect class="cls-10" x="429.23" y="209.89" width="2.55" height="38.6" rx="1.27"/><path class="cls-11" d="M430.53,209.89v38.59a1.31,1.31,0,0,0,1.28-1.34h0v-35.9a1.32,1.32,0,0,0-1.27-1.35Z"/><path class="cls-10" d="M516.53,80.08a132.42,132.42,0,0,0-4.46-13.17c-6.77-16.83-13.77-23-16.6-23s-9.83,6.27-16.6,23a129.9,129.9,0,0,0-4.46,13.17Z"/><rect class="cls-13" x="465.68" y="188.48" width="59.6" height="6.57"/><rect class="cls-13" x="465.68" y="197.25" width="59.6" height="3.29"/><ellipse class="cls-14" cx="495.48" cy="118.4" rx="22.4" ry="22.45"/><ellipse class="cls-12" cx="495.48" cy="118.4" rx="19.3" ry="19.34"/><path class="cls-15" d="M495.53,41.61h0V222.44h29.8V129.06C525.28,77.73,505.41,41.61,495.53,41.61Z"/><ellipse class="cls-16" cx="495.48" cy="118.4" rx="18.39" ry="18.43"/><ellipse class="cls-17" cx="485" cy="110.99" rx="3.1" ry="2.37" transform="translate(61.55 372.21) rotate(-44.56)"/><circle class="cls-17" cx="488.75" cy="106.85" r="1.4"/><polygon class="cls-16" points="524.52 229.18 466.43 229.18 468.62 222.44 522.34 222.44 524.52 229.18"/><polygon class="cls-18" points="522.89 224.12 522.34 222.44 468.62 222.44 468.07 224.12 522.89 224.12"/><polygon class="cls-19" points="468.19 223.76 467.97 224.44 522.99 224.44 522.77 223.76 468.19 223.76"/></g></svg>