<?xml version="1.0" encoding="utf-8"?>
<!-- Generator: Adobe Illustrator 25.1.0, SVG Export Plug-In . SVG Version: 6.00 Build 0)  -->
<svg version="1.1" baseProfile="tiny" id="Layer_5" xmlns="http://www.w3.org/2000/svg" xmlns:xlink="http://www.w3.org/1999/xlink"
	 x="0px" y="0px" viewBox="0 0 5191.7 758.2" overflow="visible" xml:space="preserve">
<rect x="-77.7" y="-13.3" fill-rule="evenodd" fill="#070808" width="5291.4" height="858"/>
<path fill-rule="evenodd" fill="#1FE3F9" d="M992.9,244.5c0,7-2.2,13.5-6,18.8c-10.1,15.1-23.7,26-37.4,37.4
	c-2.8,2.7-4.6,6.4-4.8,10.5c-1.5,69.2-27.1,148.2-72.8,200.5c-54.6,62.5-129,104.9-215.1,104.9c-8.8,0-16-7.2-16-16
	c0-8.8,7.2-16,16-16c158.6,0,244.9-138.6,255-256.9c0.5-1.7,0.8-3.8,0.8-6.8c0-1,0-2,0.1-3c0.8-13.8,7-26.2,16.4-35
	c0.5-0.4,0.8-0.9,1.2-1.3c11.6-11.4,22.2-24.7,30.5-37.2c-11.7,5.3-24.1,9.2-36.9,11.9c-2.1,0-4-1.8-4-4c0-1.1,0.4-2.1,1.2-2.8
	c0,0-0.1,0-0.1,0c12.6-11,22.3-25.4,27.5-41.8c-8.5,5.1-17.4,9.4-26.7,13.1c-6,2.4-12.5,3.8-19.4,3.8c-10.7,0-20.6-3.2-28.8-8.7
	c-0.3-0.2-0.6-0.4-1-0.6c-13.7-9.2-29.6-14.7-47.7-14.7L823,201c-39.7,0-69.9,22.4-81.2,56.7c-0.3,0.1-3.6,14.4-3.9,16.5
	c-3,19.1-19.5,33.7-39.5,33.7c-2.2,0-4.3-0.2-6.4-0.5c-52.5-9.8-99.8-32.5-135.2-69.4c-0.2-0.2-0.4-0.2-0.7-0.5
	c-4.7-4.7-12.3-4.7-17,0c-1.1,1.1-1.9,2.4-2.5,3.7c-0.1,0.3-0.2,0.3-0.3,0.4c-4.3,9.9-7.4,20.5-7.4,31.1c0,21.8,8.9,41.8,22.2,57.6
	c0,0-0.2-0.1-0.1,0c1.2,1.4,1.9,3.2,1.9,5.1c0,4.4-3.6,8-8,8c-0.9,0-1.7-0.2-2.5-0.5c-0.1-0.1-0.2-0.1-0.4-0.2
	c-0.1,0.1-0.3,0.1-0.6,0c-1.1-0.5-2.3-0.8-3.6-0.8c-4.3,0-7.9,3.5-8,7.8c4.2,28.5,21.6,53.7,45.2,68.5c-0.3,0-0.5,0-0.4,0
	c2.2,1.4,3.6,3.9,3.6,6.7c0,4.4-3.6,8-8,8c-0.1,0-0.2,0-0.3,0c-0.1,0-0.2-0.1-0.3-0.1c-0.3,0-0.6-0.1-0.8-0.1
	c-2.2,0.1-3.8,1.8-3.8,4c0,0.6,0.1,1.2,0.4,1.7c6.5,16.2,17.5,30.1,31.4,40.2c0.2,0.1,0.2,0.2,0.4,0.4c1.2,0.8,2.3,1.8,3.4,2.9
	c10.9,10.9,10.9,28.6,0,39.6c-3.4,3.3-7.3,5.7-11.6,7c0,0,0,0-0.1,0c-16.4,5.2-33.8,8.2-52.2,8.2c-3.1,0-6.5,0-10,0
	c-2.2,0-4,1.8-4,4c0,1.3,0.6,2.4,1.6,3.1c6.6,3.9,13.3,7.7,20.3,11.3l0,0c4.7,2.6,8,7.6,8,13.4c0,8.5-6.9,15.4-15.4,15.4
	c-3.5,0-6.7-1.2-9.3-3.1c-11.2-5.9-22.1-12.1-32.4-18.8c-12.6-8.1-17.9-24-12.9-38.2c4.6-13,16.7-19.1,30.1-19.1c6,0.7,17.9,0,24,0
	c12.3,0,22.4-2.5,34-5.3c-17.5-14.8-31-34.6-38.3-57.6c-1.8-5.7-2-11.7-0.6-17.4c-20.6-22.5-35.1-55.3-35.1-87.7
	c0.2-8,5.3-14.7,10.5-20.4c-5.1-13.8-10.5-28.4-10.5-43.6c0-22.1,8.6-44,19.6-63c5.3-9.2,18-16.2,28.4-17c9.6,0,18,5.3,24.1,12.8
	c30.2,37.4,77.4,57.4,123.9,68.9c0.8,0.1,1.6,0.2,2.5,0.2c7.6,0,13.9-5.3,15.6-12.4c12.7-53.8,54.5-93.6,112-93.6
	c24.3,0,48.1,7.3,68.1,20.6c3.1,2,6.8,3.2,10.7,3.2c1.8,0,3.4-0.3,5-0.7c8.7-3.2,17.1-7,25.1-11.8c5.1-3,10.7-3.3,16.4-3.3
	c7.1,0,14.2,1.1,20,5.8c10.4,8.4,14.6,22.4,10.6,35.2c0,0,0,0.1,0,0.1C987.4,223.6,992.9,233.4,992.9,244.5L992.9,244.5z
	 M512.9,504.7C511.6,504.5,514.1,504.7,512.9,504.7L512.9,504.7z M544.9,192.7C544,192.7,545.7,192.6,544.9,192.7L544.9,192.7z
	 M600.9,576.7c8.8,0,16,7.2,16,16c0,8.8-7.2,16-16,16c-8.8,0-16-7.2-16-16C584.9,583.8,592,576.7,600.9,576.7L600.9,576.7z"/>
<path fill-rule="evenodd" fill="#1FE3F9" d="M3403.1,603.8h-89.4c-21.7,0-39.7-12.9-43.8-30c-0.3,0-0.6,0-0.9,0V438.3
	c0-16.1-16-29.2-35.8-29.2c-19.8,0-35.8,13.1-35.8,29.2V566v0.4c0,9.1-4.1,17.4-10.6,23.9c-3.6,4.5-9.6,7.5-16.6,7.5
	c-11,0-19.9-7.4-19.9-16.6c0-4.9,2.5-9.2,6.5-12.2c2.9-2.7,4.7-6.1,4.7-10v-21.4v-30.8v-69.8c0-31.9,32-57.8,71.5-57.8
	c39.5,0,71.6,25.9,71.6,57.8v100.6c0,1.1-0.1,2-0.2,3c0.1,0,0.1,0,0.2,0v18.5c0,8.3,8,15,17.9,15h71.5c9.9,0,17.9-6.7,17.9-15V424
	c0-1.1-0.2-2.2-0.4-3.3c-4.6-65.1-66.6-116.6-142.7-116.6c-31.6,0-60.6,9-84.3,24c-0.1,0-0.2,0-0.4,0.1c-2.4,1.6-5.4,2.6-8.7,2.6
	c-7.7,0-14-5.2-14-11.7c0-0.8-0.1-1.2-0.2-1.3c-0.8-7.6-8.4-13.6-17.7-13.6H3090c-19.8,0-35.8,13.4-35.8,30v224.8
	c0,1.3,0.3,2.6,0.7,3.9c-0.4,1.1-0.7,2.3-0.7,3.6c0,20.7-20,37.4-44.7,37.4h-3.3h-86.2c-24.7,0-44.7-16.8-44.7-37.4V311.6
	c0-20.7,20-37.4,44.7-37.4h44.7c29.6,0,53.7-20.1,53.7-45c0-24.8-24-45-53.7-45c-29.6,0-53.7,20.1-53.7,45c0,8.3-8,15-17.9,15
	c-9.9,0-17.9-6.7-17.9-15c0-41.4,40.1-74.9,89.5-74.9c49.4,0,89.4,33.5,89.4,74.9c0,3.8-0.4,7.5-1.1,11.1c-0.1,0.7-0.2,1.4-0.4,2.1
	c-0.8,3.6-1.8,7.2-3.2,10.7c-0.1,0.2-0.2,0.3-0.2,0.5c-3.1,7.4-7.5,14.3-13,20.5c-16.3,18.2-42.2,30-71.4,30H2929
	c-9.9,0-17.9,6.7-17.9,15v239.8c0,8.3,8,15,17.9,15h90.3c-0.6-2.4-0.9-4.9-0.9-7.5V334.1c0-33.1,32.1-59.9,71.6-59.9h62.6
	c11,0,21.1,3.4,28.9,9c0.1,0.1,0.2,0,0.3,0c3.1,2.3,7.2,3.6,11.6,3.6c2.4,0,4.8-0.4,6.9-1.1c0.6-0.2,1-0.2,1.4-0.2
	c20.8-7.1,43.4-11.3,67.2-11.3c92.7,0,169,59.1,178,134.8c0.6,2.4,0.9,5,0.9,7.6v149.8C3447.8,587.1,3427.8,603.8,3403.1,603.8
	L3403.1,603.8z M3108.2,560.3c9.9,0,17.9,6.7,17.9,15c0,8.3-8,15-17.9,15c-9.9,0-17.9-6.7-17.9-15
	C3090.3,567,3098.3,560.3,3108.2,560.3L3108.2,560.3z"/>
<path fill-rule="evenodd" fill="#E62D27" d="M2428.7,249.7v0.7v25.3c0,7.2,6.7,13,15,13h29.2h0.8c8.3,0,15,5.8,15,13
	c0,7.2-6.7,13-15,13h-37.5c-19.7,0-35.6-13.2-37.2-29.9c-0.1-0.9-0.3-1.7-0.3-2.6v-32.5c0-7.2,6.7-13,15-13
	C2422,236.7,2428.7,242.5,2428.7,249.7L2428.7,249.7z M2188.7,405.6c0-7.2,6.7-13,15-13c8.3,0,15,5.8,15,13c0,7.2-6.7,13-15,13
	C2195.4,418.7,2188.7,412.8,2188.7,405.6L2188.7,405.6z M2308.7,496.7c-32.6,0-62.1-11.3-83.7-29.6c-3.3-2.4-5.6-6-5.6-10
	c0-7.2,6.7-13,15-13c4.2,0,7.9,1.5,10.6,3.8l0.1,0c16.3,14.1,38.8,22.8,63.6,22.8c45.4,0,82.8-29.1,89-67l0.1,0
	c1.3-7,8.8-11.9,17-10.9c8.2,1,13.9,7.6,12.7,14.7c-0.1,0.7-0.3,1.3-0.6,2C2417.6,458.9,2368.3,496.7,2308.7,496.7L2308.7,496.7z
	 M2533.7,418.7c-8.3,0-15-5.8-15-13c0-7.2,6.7-13,15-13c8.3,0,15,5.8,15,13C2548.7,412.8,2542,418.7,2533.7,418.7L2533.7,418.7z
	 M2458.7,600.6h-300c-49.7,0-90-34.9-90-78v-130c0-28.7,26.9-52,60-52h7.5h52.5c9.8,0,18.6-4.1,24-10.4c0.1-0.1,0.3-0.2,0.5-0.3
	c21.9-25,56.5-41.2,95.5-41.2c39,0,73.6,16.2,95.5,41.2c0.2,0.1,0.3,0.2,0.5,0.3c5.5,6.3,14.2,10.4,24,10.4h60c16.6,0,30-11.6,30-26
	v-4.8v-21.2v-26c0-28.7-26.9-52-60-52h-300c-33.1,0-60,23.3-60,52v26v13c0,7.2-6.7,13-15,13c-8.3,0-15-5.8-15-13v-39
	c0-43.1,40.3-78,90-78h300c49.7,0,90,34.9,90,78v39v13c0,28.7-26.9,52-60,52h-60c-19.6,0-37-8.2-48-20.8c-0.1-0.1-0.2-0.1-0.3-0.2
	c-16.4-18.8-42.4-31-71.8-31c-29.3,0-55.4,12.2-71.8,31c-0.1,0.1-0.2,0.1-0.3,0.2c-10.9,12.6-28.4,20.8-48,20.8h-60
	c-16.6,0-30,11.6-30,26v130c0,28.7,26.9,52,60,52h300c33.1,0,60-23.3,60-52v-65c0-7.2,6.7-13,15-13c8.3,0,15,5.8,15,13v65
	C2548.7,565.7,2508.4,600.6,2458.7,600.6L2458.7,600.6z"/>
<path fill-rule="evenodd" fill="#E62D27" d="M4214.3,510c0,0-11.5,39.7-26.9,55.6c-19.5,20.8-42.8,25.3-52.8,26.5
	c-3.3,0.2-6.7,0.5-10.1,0.7l0-0.1c-4.5,0.4-9.1-1-12.5-4.4c-6.2-6.2-6.2-16.3,0-22.4c2.8-2.8,6.5-4.2,10.1-4.4l0-0.2
	c0.5,0,1.1-0.1,1.6-0.1c8.3-1,26.4-1.1,42.5-18.3c12.7-13.1,16.8-42.9,16.8-42.9s4.2-35,4.2-69.9v-48.8c0-35-4.2-69.9-4.2-69.9
	s-4.1-29.8-16.8-42.9c-16.1-17.2-34.2-17.3-42.5-18.3c-59.3-4.4-160.4-4.4-160.4-4.4s-101.1,0-160.4,4.4c-8.3,1-26.4,1.1-42.5,18.3
	c-12.7,13.1-16.8,42.9-16.8,42.9c0,0-4.2,35-4.2,69.9V430c0,35,4.2,69.9,4.2,69.9c0,0,4.1,29.8,16.8,42.9
	c16.1,17.2,37.3,16.7,46.8,18.5c33.9,3.3,156.1,4.4,156.1,4.4c8.8,0,16,7.2,16,16c0,8.8-7.2,16-16,16c-0.3,0-0.5,0-0.8-0.1
	c-10.1-0.1-126.1-1.4-165.3-5.3c-11.4-2.2-38.5-5.8-58-26.7c-15.4-15.9-26.8-55.6-26.8-55.6s-5.1-34.3-5.1-76.7v-55.7
	c0-42.3,5.1-76.7,5.1-76.7s11.5-39.5,26.8-55.4c19.5-20.8,42.8-25.5,52.8-26.7c71.7-5.3,171.1-5.3,171.1-5.3h0.2
	c0,0,99.5,0,171.1,5.3c10,1.2,33.3,5.9,52.8,26.7c15.4,15.9,26.9,55.4,26.9,55.4s5.1,34.3,5.1,76.7v55.7
	C4219.5,475.7,4214.3,510,4214.3,510L4214.3,510z M4027.5,565.6c8.8,0,16,7.2,16,16c0,8.8-7.2,16-16,16s-16-7.2-16-16
	C4011.5,572.8,4018.6,565.6,4027.5,565.6L4027.5,565.6z M3955.9,483.8l-0.1,0.1c-2.4,1.4-5.1,2.3-8.1,2.3c-8.7,0-15.8-7.1-15.8-15.8
	c0-6.1,3.5-11.3,8.5-13.9l0,0L4022,413c0,0-0.2-0.1-0.1-0.1c2.7-1.3,4.5-4,4.5-7.2c0-2.9-1.6-5.5-3.9-6.8l-95.5-51.1
	c-1.1-0.6-2.3-0.8-3.5-0.8c-4.3,0-7.7,3.4-7.9,7.5l0,99h-0.1c0,0.1,0,0.1,0,0.2c0,8.8-7.2,16-16,16c-8.8,0-16-7.2-16-16c0,0,0,0,0,0
	V342.2c0-18,14.6-32.6,32.6-32.6c6.1,0,11.9,1.7,16.8,4.7c0.2,0.1,0.3,0.1,0.4,0.1l110.4,63.6c2.3,1.4,4.5,3,6.5,5
	c12.5,12.5,12.5,32.8,0,45.3c-1.8,1.8-3.9,3.4-6,4.7l-87.5,50.4C3956.3,483.5,3956.1,483.6,3955.9,483.8L3955.9,483.8z"/>
<path fill-rule="evenodd" fill="#1AB7EA" d="M1655.8,491.9c-71.6,82.7-130.7,124.7-175.6,124.7c-46.3,0-90.4-74.4-115.1-194.1
	c-13-63.1-23.7-86.2-28.7-94.2c-0.5,0.3-1,0.5-1.4,0.8l0-0.1c-2.2,1.1-4.7,1.8-7.3,1.8c-8.9,0-16.1-7.2-16.1-16.1
	c0-5.5,2.8-10.4,7-13.3v0c0,0,0.1,0,0.1-0.1c0,0,0.1,0,0.1-0.1c6.4-4.6,13.4-8.3,21.2-8.3c22.6,0,39.9,36.7,57.6,122.7
	c23.9,115.6,62.8,167.6,82.8,167.6c19.6,0,65.3-14.7,150.7-113.3c22.8-26.3,97.8-117.2,97.8-192.9c0-36.9-9.5-76.4-63.7-76.4
	l-3.2-0.1c-67.9,0-96.4,44.6-108.1,74.5c0,0.1,0.1,0.1,0,0.2c-0.3,0.9-0.5,1.8-0.5,2.9c0,4.4,3.6,8,8,8c0.4,0,0.8-0.1,1.2-0.2
	c3.8-0.8,6.9-1.4,8.6-1.4c0.4,0,0.8,0,1.4-0.1c1.3-0.1,3-0.1,4.9-0.1c22.3,0,35,12.2,35,33.4c0,32.8-46.9,112.8-69.1,130.9
	c-4,3.3-8.3,4.9-12.8,4.9c-19.9,0-36.7-34-50.1-101c-1.8-9.1-3.4-20.7-5-32.9c-6.7-49.8-17.3-119.2-50.4-119.2
	c-32,0-82.9,42.4-116.4,75.6l-0.1-0.1c-2.9,2.9-7,4.8-11.5,4.8c-9,0-16.2-7.3-16.2-16.2c0-4.5,1.8-8.5,4.8-11.5
	c32.4-33.1,89.2-84.5,136.9-84.5c66,0,77.8,88.3,85.7,146.8c1.6,11.7,3.1,22.7,4.7,30.8c6.5,32.5,13.8,54.3,19.3,66.3
	c19.5-25.1,47.3-78.8,47.3-94.6c0-0.1,0-0.1,0-0.1c-0.5,0-1.2-0.1-2-0.1c-1.3,0-2.4,0.1-3.2,0.1c-0.6,0-1.1,0.1-1.6,0.1
	c-0.9,0.2-2.4,0.5-4.1,0.9c-0.2,0-0.3,0.1-0.5,0.1c-2.8,0.6-5.7,0.9-8.6,0.9c-22.1,0-40-17.9-40-40c0-4.2,0.7-8.3,1.9-12.1
	c16.2-44.7,57.5-99.1,140.7-99.1c45.2,0,99.1,18.7,99.1,107.9C1760.9,304.7,1750.7,382.3,1655.8,491.9L1655.8,491.9z M1264.9,328.6
	c-8.8,0-16-7.2-16-16c0-8.8,7.2-16,16-16c8.8,0,16,7.2,16,16C1280.9,321.5,1273.8,328.6,1264.9,328.6L1264.9,328.6z"/>
<path fill-rule="evenodd" fill="#1AB7EA" d="M4802.9,264.6h-40c-8.8,0-16,7.2-16,16v32c0,8.8,7.2,16,16,16h46
	c22.7,0,37.4,19.3,33.1,42.5l-9,47.9c-3.9,21-23.8,37.6-44.5,37.6h-25.5c-8.8,0-16,7.2-16,16v136c0,22.1-17.9,40-40,40
	c-0.3,0-26.4,0-40,0c-8.8,0-16-7.2-16-16c0-8.8,7.2-16,16-16h32c8.8,0,16-7.2,16-16v-136c0-22.1,17.9-40,40-40h28.9
	c8.3,0,16.9-6.6,19.1-15l8.5-32c2.5-9.3-2.8-17-11.9-17h-44.6c-22.1,0-40-17.9-40-40v-48c0-22.1,17.9-40,40-40h40
	c8.8,0,16-7.2,16-16v-32c0-8.8-7.2-16-16-16h-64c-44.2,0-80,35.8-80,80v72c0,22.1-17.9,40-40,40h-23.6c-9,0-16.4,7.7-16.4,17v32
	c0,8.4,6.8,15,15.1,15h24.9c22.1,0,40,17.9,40,40v40c0,8.8-7.2,16-16,16c-8.8,0-16-7.2-16-16v-32c0-8.8-7.2-16-16-16h-26.5
	c-20.7,0-37.5-16.6-37.5-37.6v-47.9c0-23.2,18.4-42.5,41-42.5h23c8.8,0,16-7.2,16-16v-72c0-57.4,46.6-104,104-104h80
	c22.1,0,40,17.9,40,40v48C4842.9,246.7,4825,264.6,4802.9,264.6L4802.9,264.6z M4634.9,552.6c8.8,0,16,7.2,16,16c0,8.8-7.2,16-16,16
	c-8.8,0-16-7.2-16-16C4618.9,559.8,4626.1,552.6,4634.9,552.6L4634.9,552.6z"/>
</svg>
