<?xml version="1.0" encoding="utf-8"?>
<!-- Generator: Adobe Illustrator 25.1.0, SVG Export Plug-In . SVG Version: 6.00 Build 0)  -->
<svg version="1.1" id="Layer_1" xmlns="http://www.w3.org/2000/svg" xmlns:xlink="http://www.w3.org/1999/xlink" x="0px" y="0px"
	 viewBox="0 0 479 89" style="enable-background:new 0 0 479 89;" xml:space="preserve">
<style type="text/css">
	.st0{fill:#F16A3D;}
</style>
<g>
	<path class="st0" d="M89.5,45.5H62.9v-6.6h34.3c-0.9-2.8-3.8-5.4-8.9-5.4H63.4c-5.7,0-9,2.1-9,6.7v4.9c0,4,3.4,6.3,8.4,6.3h26.9v7
		H53.5c0.9,3.8,3.8,5.8,9,5.8h27.1c5.7,0,8.5-2.2,8.5-6.9v-4.9C98.1,48.1,94.8,45.8,89.5,45.5z"/>
</g>
<g>
	<path class="st0" d="M143.8,33.6H111v30.7h9.3V52.5h24.2c6.7,0,10.4-2.3,10.4-7.7v-3.4C154.8,36.4,150.6,33.6,143.8,33.6z
		 M146.8,43.4c0,2.2-0.4,3.4-4,3.4h-22.5l0.1-8h22c4,0,4.5,1.2,4.5,3.3L146.8,43.4L146.8,43.4z"/>
</g>
<g>
	<polygon class="st0" points="181.9,32.3 176.3,39.2 185.8,52.3 166,52.3 161.1,57.5 189.7,57.5 194.6,64.3 205.6,64.3 	"/>
</g>
<g>
	<path class="st0" d="M223.4,38.9h34.8c-0.9-3.6-4.4-5.4-9.4-5.4h-26c-4.5,0-8.8,1.8-8.8,6.7v17.2c0,4.9,4.3,6.7,8.8,6.7h26.3
		c6,0,8.1-1.7,9.1-5.8h-34.8L223.4,38.9L223.4,38.9z"/>
</g>
<g>
	<polygon class="st0" points="280.3,58.5 280.3,49.1 299,49.1 299,43.9 270.9,43.9 270.9,64.3 312.4,64.3 312.4,58.5 	"/>
	<rect x="271.9" y="33.6" class="st0" width="41.9" height="5.4"/>
</g>
<g>
	<path class="st0" d="M339.6,33.6H325l17.2,12.6c2.5-1.7,5.4-3.5,8-5L339.6,33.6z M360.8,49.3c-2.5,1.7-5,3.6-7.4,5.4l13,9.5h14.7
		L360.8,49.3L360.8,49.3z"/>
</g>
<g>
	<path class="st0" d="M451,15.7c-80,4.6-117,38.8-125.3,46.9l-1.7,1.6h14.8C378.8,24.1,436.3,17,451,15.7z"/>
</g>
</svg>
