<?xml version="1.0" encoding="utf-8"?>
<!-- Generator: Adobe Illustrator 25.1.0, SVG Export Plug-In . SVG Version: 6.00 Build 0)  -->
<svg version="1.1" id="Layer_1" xmlns="http://www.w3.org/2000/svg" xmlns:xlink="http://www.w3.org/1999/xlink" x="0px" y="0px"
	 viewBox="0 0 220.5 223.8" style="enable-background:new 0 0 220.5 223.8;" xml:space="preserve">
<style type="text/css">
	.st0{fill:#F16A3D;}
</style>
<g>
	<path class="st0" d="M139.6,44.7c-3.4-4.8-5-10.4-4.3-14.8c0.4-2.5,1.5-4.5,3.1-5.7l0,0l0,0c4.9-3.6,13.3-0.3,18.8,7.3l0.1,0.1l0,0
		c3.2,4.6,4.9,10.2,4.2,14.6c-0.4,2.5-1.5,4.5-3.1,5.7l0,0C153.3,55.7,144.9,52.4,139.6,44.7z M156.2,49.3L156.2,49.3
		c1.3-0.8,1.7-2.4,1.8-3.5c0.6-3.5-1-8.3-3.8-12.2l0,0c-4.2-5.9-10.8-9-14-6.6l0,0c-1.3,0.8-1.7,2.4-1.8,3.5
		c-0.6,3.5,1,8.3,3.8,12.2C146.4,48.6,153,51.7,156.2,49.3z"/>
	<path class="st0" d="M103,72.3c-3.4-4.8-4.5-10.4-2.7-13.4l32.2-29.3c-0.1,1-0.1,2,0,2.9c0.3,4.5,2.1,9.2,5.2,13.6
		c3.1,4.2,7,7.6,11.1,9.1c1,0.4,2,0.7,2.7,0.8l-36.7,23C111.3,79.7,106.4,77,103,72.3z"/>
	<path class="st0" d="M60.9,94.4C60.9,94.4,61,94.4,60.9,94.4l12.9-11.8c0.1,2.8,1.3,6.2,3.4,9.1s4.8,5,7.4,6L70,106.8
		c0,0-0.1,0-0.1,0.1c-1.8,1.4-5.6-0.3-7.8-3.6C59.5,100,59.2,95.8,60.9,94.4z"/>
	<path class="st0" d="M93.5,97.2v-5L89,95c-2.5,1-6.6-1.1-9.4-5c-2.8-4.1-3.5-8.8-1.8-10.9l18.3-16.7c0,3.6,1.4,8,4.2,11.8
		c2.8,3.9,6.3,6.6,9.8,7.6l0,0v15.4c0,1.3-0.6,2.4-1.4,3.1l11.2,83.1c0,0.3-0.1,0.6-0.4,0.6l-1.7,0.3c0,0,0,0-0.1,0
		c-0.3,0-0.4-0.1-0.6-0.4l-12.6-76.8l-1.4,90.1c0,0.3-0.3,0.6-0.6,0.6h-2c-0.3,0-0.6-0.3-0.6-0.6l-1.4-90.1l-12.9,76.8
		c0,0.3-0.3,0.4-0.6,0.4c0,0,0,0-0.1,0l-1.7-0.3c-0.3,0-0.4-0.3-0.4-0.6L94,100.1C94.1,99.4,93.5,98.3,93.5,97.2z"/>
</g>
</svg>
