<?xml version="1.0" encoding="utf-8"?>
<!-- Generator: Adobe Illustrator 25.1.0, SVG Export Plug-In . SVG Version: 6.00 Build 0)  -->
<svg version="1.1" id="Icon" xmlns="http://www.w3.org/2000/svg" xmlns:xlink="http://www.w3.org/1999/xlink" x="0px" y="0px"
	 viewBox="0 0 250 249" style="enable-background:new 0 0 250 249;" xml:space="preserve">
<style type="text/css">
	.st0{fill:#F16A3D;}
</style>
<g>
	<path class="st0" d="M188.5,81.6h-43.2v8.7H141v-8.7H56.2c-1.1,7.9-8.4,14.2-17.4,15.1v63.5c9.1,0.8,16.3,7.1,17.4,15.1H141v-8.7
		h4.3v8.7h43.2c1.1-7.9,8.4-14.2,17.4-15.1V96.7C196.8,95.7,189.5,89.5,188.5,81.6z M145.3,159.6H141V149h4.3V159.6z M145.3,142.3
		H141v-10.6h4.3V142.3z M145.3,125H141v-10.6h4.3V125z M145.3,107.6H141V97.1h4.3V107.6z M165.5,103.4h21.4v4.3h-21.4V103.4z
		 M196.6,153.4h-40.9v-4.3h40.9V153.4z M196.6,138.1h-40.9v-4.3h40.9V138.1z M196.6,122.9h-40.9v-4.3h40.9V122.9z"/>
</g>
<g id="Icon_2_">
	<g>
		<path d="M107,106.5c-1.1,0.1-1.3,1.6-0.4,2.1c1,0.5,2.1,1.3,2.9,2.2c0.9,0.9,1.6,1.9,2.2,2.8c0.5,0.9,1.9,0.7,2.1-0.4
			c0.2-1.9-0.2-3.8-1.6-5.1C110.8,106.8,109,106.3,107,106.5z"/>
		<path d="M118.6,101.6c-1.9-1.9-6-1.3-9.4,0.2c-1.8,0.5-3.4,1.5-4.7,2.8l-7.3,7.3c-0.5,0.4-1.1,0.7-1.6,1.1c-4.8,3-10.8,4-16.8,3.2
			c-2.9-0.4-5.7,0.4-7.9,2.5l-1.3,1.3l9.7,9.7l-0.5,0.5c-0.1,0.1-0.3,0.1-0.4,0.1l-2.6,1.5c-0.8,0.5-1,1.6-0.4,2.2l0.1,0.1l-0.7,0.2
			l5.1,5l0.2-0.7l1.5,1.5l-0.7,0.2l5.1,5.1l0.2-0.7l0.1,0.1c0.7,0.7,1.8,0.5,2.2-0.3l1.5-2.6c0.1-0.1,0.1-0.3,0.1-0.5l0.5-0.5
			l9.7,9.7l1.3-1.3c2.1-2.1,2.9-5,2.5-7.9c-0.8-6,0.2-11.9,3.2-16.8c0.4-0.7,0.8-1.3,1.3-2l7-7c1.2-1.2,2.2-2.8,2.7-4.5
			C120,107.8,120.6,103.6,118.6,101.6z M118.1,109.6c-0.4,2.1-1.5,4.2-2.9,5.6L90,140.3c-0.1-0.1-0.1-0.2-0.2-0.3l-4.2-4.2l7.7-7.7
			c0.4-0.4,0.4-0.9,0-1.2c-0.4-0.4-0.9-0.4-1.2,0l-7.7,7.7l-4.2-4.2c-0.1-0.1-0.2-0.2-0.4-0.2l0.1-0.1L105,105
			c1.5-1.5,3.5-2.5,5.6-2.9c0.5,0,0.9,0,1.3,0.1c-0.5,0.8,0.2,2.6,1.9,4.2c1.6,1.6,3.4,2.4,4.2,1.9
			C118.1,108.7,118.1,109.1,118.1,109.6z"/>
		<path d="M74.9,135.4c-4.7,1.9-8,6.5-8,11.9c5.3,0,10-3.3,11.9-8c-1.9,3.1-5.3,5.2-9.1,5.2C69.7,140.6,71.8,137.2,74.9,135.4z"/>
		<path d="M75.8,150.6c0-3.9,2.1-7.3,5.3-9.1c-4.7,1.9-8,6.5-8,11.9c5.3,0,10-3.3,11.9-8C83.1,148.5,79.7,150.6,75.8,150.6z"/>
	</g>
</g>
</svg>
